<svg width="832" height="227" viewBox="0 0 832 227" fill="none" xmlns="http://www.w3.org/2000/svg">
<path d="M0.708923 220.264V0.26358H220.209L0.708923 220.264Z" fill="#3F51B5"/>
<path d="M238.209 6.26358L238.209 226.264L18.7089 226.264L238.209 6.26358Z" fill="#3F51B5"/>
<rect x="144.709" y="157.264" width="50" height="9.375" rx="4.6875" fill="white"/>
<rect x="37.7089" y="65.8886" width="50" height="9.375" rx="4.6875" fill="white"/>
<rect x="58.3339" y="95.2636" width="50" height="9.375" rx="4.6875" transform="rotate(-90 58.3339 95.2636)" fill="white"/>
<path d="M352.045 106.135H340.22V97.5H374.705V106.135H362.935V136H352.045V106.135ZM418.142 97.5V136H407.252V120.985H392.402V136H381.512V97.5H392.402V111.965H407.252V97.5H418.142ZM459.484 127.585V136H428.574V97.5H458.769V105.915H439.354V112.405H456.459V120.545H439.354V127.585H459.484ZM485.877 97.5C489.36 97.5 492.385 98.0867 494.952 99.26C497.518 100.397 499.498 102.047 500.892 104.21C502.285 106.337 502.982 108.848 502.982 111.745C502.982 114.642 502.285 117.153 500.892 119.28C499.498 121.407 497.518 123.057 494.952 124.23C492.385 125.367 489.36 125.935 485.877 125.935H479.167V136H468.277V97.5H485.877ZM485.217 117.355C487.453 117.355 489.14 116.878 490.277 115.925C491.413 114.935 491.982 113.542 491.982 111.745C491.982 109.948 491.413 108.555 490.277 107.565C489.14 106.575 487.453 106.08 485.217 106.08H479.167V117.355H485.217ZM511.041 97.5H521.931V127.365H540.301V136H511.041V97.5ZM564.75 136.77C559.03 136.77 554.575 135.212 551.385 132.095C548.231 128.978 546.655 124.56 546.655 118.84V97.5H557.545V118.51C557.545 124.67 559.983 127.75 564.86 127.75C569.7 127.75 572.12 124.67 572.12 118.51V97.5H582.845V118.84C582.845 124.56 581.25 128.978 578.06 132.095C574.906 135.212 570.47 136.77 564.75 136.77ZM606.502 136.77C603.385 136.77 600.36 136.385 597.427 135.615C594.494 134.845 592.11 133.818 590.277 132.535L593.852 124.505C595.575 125.642 597.574 126.558 599.847 127.255C602.12 127.952 604.357 128.3 606.557 128.3C610.737 128.3 612.827 127.255 612.827 125.165C612.827 124.065 612.222 123.258 611.012 122.745C609.839 122.195 607.932 121.627 605.292 121.04C602.395 120.417 599.975 119.757 598.032 119.06C596.089 118.327 594.42 117.172 593.027 115.595C591.634 114.018 590.937 111.892 590.937 109.215C590.937 106.868 591.579 104.76 592.862 102.89C594.145 100.983 596.052 99.48 598.582 98.38C601.149 97.28 604.284 96.73 607.987 96.73C610.517 96.73 613.01 97.0233 615.467 97.61C617.924 98.16 620.087 98.985 621.957 100.085L618.602 108.17C614.935 106.19 611.379 105.2 607.932 105.2C605.769 105.2 604.192 105.53 603.202 106.19C602.212 106.813 601.717 107.638 601.717 108.665C601.717 109.692 602.304 110.462 603.477 110.975C604.65 111.488 606.539 112.02 609.142 112.57C612.075 113.193 614.495 113.872 616.402 114.605C618.345 115.302 620.014 116.438 621.407 118.015C622.837 119.555 623.552 121.663 623.552 124.34C623.552 126.65 622.91 128.74 621.627 130.61C620.344 132.48 618.419 133.983 615.852 135.12C613.285 136.22 610.169 136.77 606.502 136.77ZM666.092 136L665.982 115.595L656.082 132.205H651.242L641.397 116.145V136H631.332V97.5H640.297L653.827 119.72L667.027 97.5H675.992L676.102 136H666.092ZM686.558 97.5H697.448V136H686.558V97.5ZM744.576 97.5V136H735.611L718.616 115.485V136H707.946V97.5H716.911L733.906 118.015V97.5H744.576ZM772.772 136.77C767.052 136.77 762.597 135.212 759.407 132.095C756.254 128.978 754.677 124.56 754.677 118.84V97.5H765.567V118.51C765.567 124.67 768.006 127.75 772.882 127.75C777.722 127.75 780.142 124.67 780.142 118.51V97.5H790.867V118.84C790.867 124.56 789.272 128.978 786.082 132.095C782.929 135.212 778.492 136.77 772.772 136.77ZM814.525 136.77C811.408 136.77 808.383 136.385 805.45 135.615C802.516 134.845 800.133 133.818 798.3 132.535L801.875 124.505C803.598 125.642 805.596 126.558 807.87 127.255C810.143 127.952 812.38 128.3 814.58 128.3C818.76 128.3 820.85 127.255 820.85 125.165C820.85 124.065 820.245 123.258 819.035 122.745C817.861 122.195 815.955 121.627 813.315 121.04C810.418 120.417 807.998 119.757 806.055 119.06C804.111 118.327 802.443 117.172 801.05 115.595C799.656 114.018 798.96 111.892 798.96 109.215C798.96 106.868 799.601 104.76 800.885 102.89C802.168 100.983 804.075 99.48 806.605 98.38C809.171 97.28 812.306 96.73 816.01 96.73C818.54 96.73 821.033 97.0233 823.49 97.61C825.946 98.16 828.11 98.985 829.98 100.085L826.625 108.17C822.958 106.19 819.401 105.2 815.955 105.2C813.791 105.2 812.215 105.53 811.225 106.19C810.235 106.813 809.74 107.638 809.74 108.665C809.74 109.692 810.326 110.462 811.5 110.975C812.673 111.488 814.561 112.02 817.165 112.57C820.098 113.193 822.518 113.872 824.425 114.605C826.368 115.302 828.036 116.438 829.43 118.015C830.86 119.555 831.575 121.663 831.575 124.34C831.575 126.65 830.933 128.74 829.65 130.61C828.366 132.48 826.441 133.983 823.875 135.12C821.308 136.22 818.191 136.77 814.525 136.77Z" fill="#3F51B5"/>
</svg>
